<svg xmlns="http://www.w3.org/2000/svg" viewBox="0 0 1000 1000"><defs><style>.a{fill:#848484;}.b{fill:#464646;}.c{fill:#686868;}.d{fill:#1e1d1d;}.e{fill:#7f7e7e;}.f{fill:#abb7b7;}.g{fill:#00b16a;}.h{fill:#f22613;}.i{fill:#e9d460;}.j{opacity:0.2;}.j,.t{isolation:isolate;}.k{fill:#b8845b;}.l{fill:#785439;}.m{fill:#956b49;}.n{fill:#583c28;}.o{fill:#72b248;}.p{fill:#60a036;}.q{fill:#9bca6b;}.r{fill:#56962c;}.s{fill:#6b6b6b;}.t{fill:#fff;opacity:0.1;}</style></defs><title>icon</title><path class="a" d="M805.61,74.64H522.7c-21-1.61-31.44,9.67-31.44,9.67l-42.85,49.44a17.44,17.44,0,0,1,7.76-1.88H760a17.68,17.68,0,0,1,17.64,17.66l-.52,595.7c0,7.44-2.6,25-10.22,32.75l-2.67,2.72L825,694.47c19.35-29,18.56-57.23,18.56-57.23V106.07c0-29-37.9-31.43-37.9-31.43Z"/><path class="b" d="M777.13,743.05l.52-593.52A17.68,17.68,0,0,0,760,131.87H456.16a17.39,17.39,0,0,0-7.76,1.88,17.65,17.65,0,0,0-9.89,15.78V634H777.65V750.58H438.52v13.67a17.68,17.68,0,0,0,17.65,17.66H760c2.25,0,4.6-1.57,6.9-3.91,7.61-7.75,10.22-27.46,10.22-35Zm-275-250.84a8.84,8.84,0,1,1,8.84-8.83A8.83,8.83,0,0,1,502.11,492.21Zm70.65,0a8.7,8.7,0,1,1,8.84-8.84A8.88,8.88,0,0,1,572.76,492.21Zm70.65,0a8.7,8.7,0,1,1,8.85-8.84A8.88,8.88,0,0,1,643.41,492.21Zm70.67,0a8.83,8.83,0,1,1,8.82-8.84,8.82,8.82,0,0,1-8.82,8.84Zm35.3-46.83a8.84,8.84,0,0,1-8.82,8.84h-265a8.87,8.87,0,0,1-8.83-8.84V145.11a8.84,8.84,0,0,1,8.83-8.83h265a8.85,8.85,0,0,1,8.81,8.83V445.38Z"/><path class="c" d="M438.52,634H777.11V750.58H438.52Z"/><path class="d" d="M740.56,136.28h-265a8.84,8.84,0,0,0-8.83,8.83V445.38a8.86,8.86,0,0,0,8.83,8.84h265a8.83,8.83,0,0,0,8.81-8.84V145.11A8.84,8.84,0,0,0,740.56,136.28ZM722.7,417.14a8.85,8.85,0,0,1-8.83,8.82H502.3a8.82,8.82,0,0,1-8.82-8.82v-30a8.82,8.82,0,0,1,8.82-8.83H713.87a8.83,8.83,0,0,1,8.83,8.83Zm0-70.66a8.85,8.85,0,0,1-8.83,8.81H502.3a8.82,8.82,0,0,1-8.82-8.81v-30a8.84,8.84,0,0,1,8.82-8.83H713.87a8.84,8.84,0,0,1,8.83,8.83Zm0-70.66a8.85,8.85,0,0,1-8.83,8.83H502.3a8.82,8.82,0,0,1-8.82-8.83v-30A8.82,8.82,0,0,1,502.3,237H713.87a8.83,8.83,0,0,1,8.83,8.81Zm0-70.65a8.86,8.86,0,0,1-8.83,8.83H502.3a8.84,8.84,0,0,1-8.82-8.83v-30a8.83,8.83,0,0,1,8.82-8.82H713.87a8.83,8.83,0,0,1,8.83,8.82Z"/><path class="e" d="M713.87,166.31H502.3a8.83,8.83,0,0,0-8.82,8.83v30A8.84,8.84,0,0,0,502.3,214H713.87a8.86,8.86,0,0,0,8.83-8.83v-30A8.84,8.84,0,0,0,713.87,166.31Zm0,70.67H502.3a8.8,8.8,0,0,0-8.82,8.8v30a8.82,8.82,0,0,0,8.82,8.82H713.87a8.84,8.84,0,0,0,8.83-8.82v-30A8.83,8.83,0,0,0,713.87,237Zm0,70.64H502.3a8.84,8.84,0,0,0-8.82,8.83v30a8.83,8.83,0,0,0,8.82,8.81H713.87a8.85,8.85,0,0,0,8.83-8.81v-30A8.84,8.84,0,0,0,713.87,307.62Zm0,70.66H502.3a8.83,8.83,0,0,0-8.82,8.83v30A8.83,8.83,0,0,0,502.3,426H713.87a8.85,8.85,0,0,0,8.83-8.82v-30A8.83,8.83,0,0,0,713.87,378.28Z"/><path class="f" d="M502.11,474.55a8.83,8.83,0,1,0,0,17.66h0a8.83,8.83,0,0,0,0-17.66Z"/><path class="g" d="M572.76,474.55a8.83,8.83,0,1,0,8.84,8.82A8.85,8.85,0,0,0,572.76,474.55Z"/><path class="h" d="M643.41,474.55a8.83,8.83,0,1,0,8.85,8.82A8.86,8.86,0,0,0,643.41,474.55Z"/><path class="i" d="M714.08,474.55a8.83,8.83,0,1,0,8.82,8.83,8.83,8.83,0,0,0-8.82-8.83Z"/><path class="a" d="M523.57,218.27H240.66c-20.95-1.61-31.43,9.67-31.43,9.67l-42.85,49.44a17.35,17.35,0,0,1,7.77-1.88H478a17.7,17.7,0,0,1,17.65,17.67l-.53,595.69c0,7.44-2.62,25-10.22,32.75l-2.69,2.71,60.71-86.2c19.36-29,18.55-57.24,18.55-57.24V249.7C561.47,220.69,523.57,218.27,523.57,218.27Z"/><path class="b" d="M495.11,886.68l.53-593.51A17.7,17.7,0,0,0,478,275.5H174.15a17.4,17.4,0,0,0-7.77,1.88,17.64,17.64,0,0,0-9.89,15.79V777.62H495.64V894.2H156.49v13.67a17.68,17.68,0,0,0,17.66,17.65H478c2.25,0,4.61-1.55,6.9-3.9,7.6-7.73,10.22-27.45,10.22-34.94Zm-275-250.83a8.84,8.84,0,1,1,8.63-8.63A8.83,8.83,0,0,1,220.08,635.85Zm70.66,0a8.84,8.84,0,1,1,8.63-8.63A8.85,8.85,0,0,1,290.74,635.85Zm70.65,0a8.84,8.84,0,1,1,8.83-8.85A8.87,8.87,0,0,1,361.39,635.85Zm70.65,0a8.84,8.84,0,1,1,8.63-8.63A8.85,8.85,0,0,1,432,635.85ZM467.35,589a8.83,8.83,0,0,1-8.81,8.85h-265a8.85,8.85,0,0,1-8.83-8.85V288.73a8.85,8.85,0,0,1,8.83-8.82h265a8.86,8.86,0,0,1,8.81,8.82V589Z"/><path class="c" d="M156.49,777.62h338.6V894.2H156.49Z"/><path class="d" d="M458.54,279.91h-265a8.84,8.84,0,0,0-8.83,8.82V589a8.85,8.85,0,0,0,8.83,8.85h265a8.84,8.84,0,0,0,8.81-8.85V288.73a8.86,8.86,0,0,0-8.81-8.82ZM440.67,560.78a8.84,8.84,0,0,1-8.83,8.82H220.27a8.82,8.82,0,0,1-8.82-8.82v-30a8.84,8.84,0,0,1,8.82-8.85H431.84a8.84,8.84,0,0,1,8.83,8.85Zm0-70.67a8.85,8.85,0,0,1-8.83,8.82H220.27a8.83,8.83,0,0,1-8.82-8.82v-30a8.83,8.83,0,0,1,8.82-8.82H431.84a8.84,8.84,0,0,1,8.83,8.82Zm0-70.67a8.83,8.83,0,0,1-8.83,8.83H220.27a8.82,8.82,0,0,1-8.82-8.83v-30a8.82,8.82,0,0,1,8.82-8.8H431.84a8.83,8.83,0,0,1,8.83,8.8Zm0-70.65a8.86,8.86,0,0,1-8.83,8.85H220.27a8.85,8.85,0,0,1-8.82-8.85v-30a8.84,8.84,0,0,1,8.82-8.83H431.84a8.84,8.84,0,0,1,8.83,8.83Z"/><path class="e" d="M431.84,309.94H220.27a8.84,8.84,0,0,0-8.82,8.83v30a8.85,8.85,0,0,0,8.82,8.85H431.84a8.86,8.86,0,0,0,8.83-8.85v-30A8.85,8.85,0,0,0,431.84,309.94Zm0,70.67H220.27a8.82,8.82,0,0,0-8.82,8.81v30a8.83,8.83,0,0,0,8.82,8.83H431.84a8.84,8.84,0,0,0,8.83-8.83v-30A8.83,8.83,0,0,0,431.84,380.61Zm0,70.65H220.27a8.82,8.82,0,0,0-8.82,8.82v30a8.84,8.84,0,0,0,8.82,8.82H431.84a8.84,8.84,0,0,0,8.83-8.82v-30A8.84,8.84,0,0,0,431.84,451.26Zm0,70.64H220.27a8.83,8.83,0,0,0-8.82,8.85v30a8.83,8.83,0,0,0,8.82,8.82H431.84a8.84,8.84,0,0,0,8.83-8.82v-30A8.85,8.85,0,0,0,431.84,521.9Z"/><path class="f" d="M220.08,618.18a8.84,8.84,0,1,0,8.63,8.63A8.83,8.83,0,0,0,220.08,618.18Z"/><path class="g" d="M290.74,618.18a8.84,8.84,0,1,0,8.63,8.63A8.84,8.84,0,0,0,290.74,618.18Z"/><path class="h" d="M361.39,618.18a8.84,8.84,0,1,0,8.83,8.82A8.86,8.86,0,0,0,361.39,618.18Z"/><path class="i" d="M432,618.18a8.84,8.84,0,1,0,8.85,8.83A8.83,8.83,0,0,0,432,618.18Z"/><path class="j" d="M479.88,904.55v13.38A20,20,0,0,0,500,938H834.68a20,20,0,0,0,20.08-20.09V904.55a20,20,0,0,1-20.08,20.08H500A20,20,0,0,1,479.88,904.55Z"/><rect class="k" x="694.1" y="850.99" width="26.78" height="26.78"/><rect class="l" x="586.99" y="850.99" width="26.78" height="26.78"/><rect class="l" x="506.66" y="850.99" width="26.78" height="26.78"/><rect class="m" x="533.44" y="850.99" width="26.78" height="26.78"/><rect class="m" x="747.65" y="663.55" width="26.78" height="26.78"/><rect class="n" x="560.21" y="663.55" width="26.78" height="26.78"/><rect class="k" x="640.55" y="663.55" width="26.78" height="26.78"/><rect class="l" x="613.77" y="663.55" width="26.78" height="26.78"/><rect class="n" x="479.88" y="663.55" width="26.78" height="26.78"/><rect class="m" x="640.55" y="636.78" width="26.78" height="26.78"/><rect class="n" x="506.66" y="636.78" width="26.78" height="26.78"/><rect class="l" x="613.77" y="636.78" width="26.78" height="26.78"/><rect class="o" x="479.88" y="636.78" width="26.78" height="26.78"/><rect class="p" x="479.88" y="610" width="26.78" height="26.78"/><rect class="n" x="613.77" y="610" width="26.78" height="26.78"/><rect class="q" x="640.55" y="610" width="26.78" height="26.78"/><rect class="o" x="479.88" y="583.22" width="26.78" height="26.78"/><rect class="r" x="506.66" y="583.22" width="26.78" height="26.78"/><rect class="p" x="533.44" y="583.22" width="26.78" height="26.78"/><rect class="o" x="560.21" y="583.22" width="26.78" height="26.78"/><rect class="o" x="720.88" y="610" width="26.78" height="26.78"/><rect class="o" x="533.44" y="610" width="26.78" height="26.78"/><rect class="r" x="720.88" y="636.78" width="26.78" height="26.78"/><rect class="p" x="506.66" y="610" width="26.78" height="26.78"/><rect class="r" x="533.44" y="556.45" width="26.78" height="26.78"/><rect class="p" x="560.21" y="556.45" width="26.78" height="26.78"/><rect class="o" x="506.66" y="556.45" width="26.78" height="26.78"/><path class="r" d="M506.66,556.45H500s-20.09,0-20.09,20.08v6.69h26.78Z"/><rect class="k" x="667.32" y="690.33" width="26.78" height="26.78"/><rect class="l" x="586.99" y="690.33" width="26.78" height="26.78"/><rect class="l" x="506.66" y="690.33" width="26.78" height="26.78"/><rect class="m" x="533.44" y="690.33" width="26.78" height="26.78"/><rect class="k" x="667.32" y="663.55" width="26.78" height="26.78"/><rect class="l" x="586.99" y="663.55" width="26.78" height="26.78"/><rect class="l" x="506.66" y="663.55" width="26.78" height="26.78"/><rect class="n" x="533.44" y="663.55" width="26.78" height="26.78"/><rect class="n" x="586.99" y="636.78" width="26.78" height="26.78"/><rect class="s" x="667.32" y="636.78" width="26.78" height="26.78"/><rect class="m" x="667.32" y="610" width="26.78" height="26.78"/><rect class="p" x="586.99" y="583.22" width="26.78" height="26.78"/><rect class="r" x="533.44" y="636.78" width="26.78" height="26.78"/><rect class="p" x="586.99" y="610" width="26.78" height="26.78"/><path class="r" d="M613.77,556.45H587v26.77h26.78Z"/><rect class="m" x="479.88" y="850.99" width="26.78" height="26.78"/><rect class="k" x="613.77" y="850.99" width="26.78" height="26.78"/><rect class="l" x="560.21" y="850.99" width="26.78" height="26.78"/><rect class="n" x="747.65" y="850.99" width="26.78" height="26.78"/><rect class="m" x="479.88" y="690.33" width="26.78" height="26.78"/><rect class="k" x="613.77" y="690.33" width="26.78" height="26.78"/><rect class="l" x="640.55" y="690.33" width="26.78" height="26.78"/><rect class="l" x="560.21" y="690.33" width="26.78" height="26.78"/><rect class="n" x="747.65" y="690.33" width="26.78" height="26.78"/><path class="m" d="M479.88,911.24v-6.69h26.78v26.77H500S479.88,931.32,479.88,911.24Z"/><rect class="s" x="613.77" y="904.55" width="26.78" height="26.78"/><rect class="l" x="747.65" y="904.55" width="26.78" height="26.78"/><rect class="l" x="560.21" y="904.55" width="26.78" height="26.78"/><rect class="m" x="533.44" y="877.77" width="26.78" height="26.78"/><rect class="n" x="506.66" y="877.77" width="26.78" height="26.78"/><rect class="k" x="586.99" y="877.77" width="26.78" height="26.78"/><rect class="l" x="694.1" y="877.77" width="26.78" height="26.78"/><rect class="k" x="586.99" y="904.55" width="26.78" height="26.78"/><rect class="l" x="506.66" y="904.55" width="26.78" height="26.78"/><rect class="n" x="533.44" y="904.55" width="26.78" height="26.78"/><rect class="m" x="613.77" y="877.77" width="26.78" height="26.78"/><rect class="k" x="479.88" y="877.77" width="26.78" height="26.78"/><rect class="l" x="560.21" y="877.77" width="26.78" height="26.78"/><rect class="n" x="747.65" y="877.77" width="26.78" height="26.78"/><rect class="k" x="774.43" y="850.99" width="26.78" height="26.78"/><rect class="l" x="720.88" y="850.99" width="26.78" height="26.78"/><rect class="m" x="640.55" y="850.99" width="26.78" height="26.78"/><rect class="m" x="694.1" y="663.55" width="26.78" height="26.78"/><rect class="n" x="801.21" y="663.55" width="26.78" height="26.78"/><rect class="k" x="827.98" y="663.55" width="26.78" height="26.78"/><rect class="q" x="694.1" y="636.78" width="26.78" height="26.78"/><rect class="l" x="801.21" y="636.78" width="26.78" height="26.78"/><rect class="n" x="801.21" y="610" width="26.78" height="26.78"/><rect class="o" x="640.55" y="583.22" width="26.78" height="26.78"/><rect class="r" x="667.32" y="583.22" width="26.78" height="26.78"/><rect class="p" x="694.1" y="583.22" width="26.78" height="26.78"/><rect class="o" x="827.98" y="583.22" width="26.78" height="26.78"/><rect class="r" x="801.21" y="583.22" width="26.78" height="26.78"/><rect class="o" x="827.98" y="610" width="26.78" height="26.78"/><rect class="o" x="694.1" y="610" width="26.78" height="26.78"/><rect class="r" x="827.98" y="636.78" width="26.78" height="26.78"/><rect class="r" x="694.1" y="556.45" width="26.78" height="26.78"/><rect class="p" x="774.43" y="556.45" width="26.78" height="26.78"/><rect class="o" x="801.21" y="556.45" width="26.78" height="26.78"/><rect class="o" x="667.32" y="556.45" width="26.78" height="26.78"/><path class="r" d="M667.32,556.45H640.55v26.77h26.77Z"/><rect class="k" x="774.43" y="690.33" width="26.78" height="26.78"/><rect class="l" x="720.88" y="690.33" width="26.78" height="26.78"/><rect class="k" x="774.43" y="663.55" width="26.78" height="26.78"/><rect class="l" x="720.88" y="663.55" width="26.78" height="26.78"/><rect class="n" x="560.21" y="636.78" width="26.78" height="26.78"/><rect class="k" x="747.65" y="636.78" width="26.78" height="26.78"/><rect class="p" x="774.43" y="583.22" width="26.78" height="26.78"/><rect class="o" x="747.65" y="583.22" width="26.78" height="26.78"/><rect class="o" x="720.88" y="583.22" width="26.78" height="26.78"/><rect class="r" x="613.77" y="583.22" width="26.78" height="26.78"/><rect class="o" x="774.43" y="610" width="26.78" height="26.78"/><rect class="r" x="747.65" y="610" width="26.78" height="26.78"/><rect class="r" x="774.43" y="636.78" width="26.78" height="26.78"/><rect class="p" x="560.21" y="610" width="26.78" height="26.78"/><rect class="o" x="613.77" y="556.45" width="26.78" height="26.78"/><path class="r" d="M854.76,576.53c0-20.08-20.08-20.08-20.08-20.08H828v26.77h26.78Z"/><rect class="p" x="747.65" y="556.45" width="26.78" height="26.78"/><rect class="o" x="720.88" y="556.45" width="26.78" height="26.78"/><rect class="s" x="827.98" y="850.99" width="26.78" height="26.78"/><rect class="l" x="801.21" y="850.99" width="26.78" height="26.78"/><rect class="n" x="667.32" y="850.99" width="26.78" height="26.78"/><rect class="l" x="827.98" y="690.33" width="26.78" height="26.78"/><rect class="l" x="801.21" y="690.33" width="26.78" height="26.78"/><rect class="n" x="694.1" y="690.33" width="26.78" height="26.78"/><rect class="l" x="667.32" y="904.55" width="26.78" height="26.78"/><rect class="l" x="801.21" y="904.55" width="26.78" height="26.78"/><rect class="n" x="774.43" y="904.55" width="26.78" height="26.78"/><rect class="m" x="640.55" y="877.77" width="26.78" height="26.78"/><rect class="k" x="720.88" y="877.77" width="26.78" height="26.78"/><rect class="l" x="774.43" y="877.77" width="26.78" height="26.78"/><path class="k" d="M854.76,911.24v-6.69H828v26.77h6.7S854.76,931.32,854.76,911.24Z"/><rect class="k" x="720.88" y="904.55" width="26.78" height="26.78"/><rect class="n" x="640.55" y="904.55" width="26.78" height="26.78"/><rect class="l" x="827.98" y="877.77" width="26.78" height="26.78"/><rect class="l" x="801.21" y="877.77" width="26.78" height="26.78"/><rect class="n" x="667.32" y="877.77" width="26.78" height="26.78"/><rect class="n" x="694.1" y="904.55" width="26.78" height="26.78"/><rect class="k" x="667.32" y="797.44" width="26.78" height="26.78"/><rect class="l" x="586.99" y="797.44" width="26.78" height="26.78"/><rect class="l" x="506.66" y="797.44" width="26.78" height="26.78"/><rect class="m" x="533.44" y="797.44" width="26.78" height="26.78"/><rect class="n" x="560.21" y="824.22" width="26.78" height="26.78"/><rect class="n" x="479.88" y="824.22" width="26.78" height="26.78"/><rect class="m" x="479.88" y="797.44" width="26.78" height="26.78"/><rect class="k" x="613.77" y="797.44" width="26.78" height="26.78"/><rect class="l" x="640.55" y="797.44" width="26.78" height="26.78"/><rect class="l" x="560.21" y="797.44" width="26.78" height="26.78"/><rect class="n" x="613.77" y="824.22" width="26.78" height="26.78"/><rect class="k" x="533.44" y="824.22" width="26.78" height="26.78"/><rect class="s" x="586.99" y="824.22" width="26.78" height="26.78"/><rect class="l" x="506.66" y="824.22" width="26.78" height="26.78"/><rect class="n" x="694.1" y="824.22" width="26.78" height="26.78"/><rect class="m" x="667.32" y="824.22" width="26.78" height="26.78"/><rect class="n" x="694.1" y="797.44" width="26.78" height="26.78"/><rect class="k" x="640.55" y="824.22" width="26.78" height="26.78"/><rect class="k" x="801.21" y="770.66" width="26.78" height="26.78"/><rect class="n" x="667.32" y="770.66" width="26.78" height="26.78"/><rect class="l" x="694.1" y="770.66" width="26.78" height="26.78"/><rect class="n" x="774.43" y="770.66" width="26.78" height="26.78"/><rect class="m" x="747.65" y="770.66" width="26.78" height="26.78"/><rect class="n" x="827.98" y="770.66" width="26.78" height="26.78"/><rect class="k" x="720.88" y="770.66" width="26.78" height="26.78"/><rect class="n" x="479.88" y="770.66" width="26.78" height="26.78"/><rect class="s" x="506.66" y="770.66" width="26.78" height="26.78"/><rect class="n" x="640.55" y="770.66" width="26.78" height="26.78"/><rect class="l" x="560.21" y="770.66" width="26.78" height="26.78"/><rect class="n" x="533.44" y="770.66" width="26.78" height="26.78"/><rect class="n" x="586.99" y="770.66" width="26.78" height="26.78"/><rect class="l" x="613.77" y="770.66" width="26.78" height="26.78"/><rect class="k" x="774.43" y="797.44" width="26.78" height="26.78"/><rect class="k" x="827.98" y="824.22" width="26.78" height="26.78"/><rect class="k" x="720.88" y="797.44" width="26.78" height="26.78"/><rect class="l" x="747.65" y="797.44" width="26.78" height="26.78"/><rect class="n" x="720.88" y="824.22" width="26.78" height="26.78"/><rect class="n" x="801.21" y="824.22" width="26.78" height="26.78"/><rect class="m" x="827.98" y="797.44" width="26.78" height="26.78"/><rect class="m" x="774.43" y="824.22" width="26.78" height="26.78"/><rect class="n" x="801.21" y="797.44" width="26.78" height="26.78"/><rect class="k" x="747.65" y="824.22" width="26.78" height="26.78"/><rect class="l" x="694.1" y="743.88" width="26.78" height="26.78"/><rect class="l" x="613.77" y="743.88" width="26.78" height="26.78"/><rect class="m" x="640.55" y="743.88" width="26.78" height="26.78"/><rect class="m" x="586.99" y="743.88" width="26.78" height="26.78"/><rect class="k" x="720.88" y="743.88" width="26.78" height="26.78"/><rect class="l" x="747.65" y="743.88" width="26.78" height="26.78"/><rect class="l" x="667.32" y="743.88" width="26.78" height="26.78"/><rect class="n" x="586.99" y="717.11" width="26.78" height="26.78"/><rect class="s" x="613.77" y="717.11" width="26.78" height="26.78"/><rect class="n" x="747.65" y="717.11" width="26.78" height="26.78"/><rect class="l" x="667.32" y="717.11" width="26.78" height="26.78"/><rect class="n" x="640.55" y="717.11" width="26.78" height="26.78"/><rect class="n" x="694.1" y="717.11" width="26.78" height="26.78"/><rect class="l" x="720.88" y="717.11" width="26.78" height="26.78"/><rect class="k" x="774.43" y="743.88" width="26.78" height="26.78"/><rect class="s" x="827.98" y="743.88" width="26.78" height="26.78"/><rect class="l" x="801.21" y="743.88" width="26.78" height="26.78"/><rect class="k" x="827.98" y="717.11" width="26.78" height="26.78"/><rect class="n" x="801.21" y="717.11" width="26.78" height="26.78"/><rect class="m" x="774.43" y="717.11" width="26.78" height="26.78"/><rect class="k" x="506.66" y="717.11" width="26.78" height="26.78"/><rect class="s" x="560.21" y="717.11" width="26.78" height="26.78"/><rect class="l" x="533.44" y="717.11" width="26.78" height="26.78"/><rect class="k" x="560.21" y="743.88" width="26.78" height="26.78"/><rect class="n" x="533.44" y="743.88" width="26.78" height="26.78"/><rect class="m" x="506.66" y="743.88" width="26.78" height="26.78"/><rect class="m" x="479.88" y="717.11" width="26.78" height="26.78"/><rect class="k" x="479.88" y="743.88" width="26.78" height="26.78"/><path class="t" d="M500,556.45a20,20,0,0,0-20.09,20.08v6.69A20,20,0,0,1,500,563.14H834.68a20,20,0,0,1,20.08,20.08v-6.69a20,20,0,0,0-20.08-20.08Z"/></svg>